M48
; DRILL file {KiCad (5.1.0-0)} date Monday, April 22, 2019 at 09:03:55 PM
; FORMAT={-:-/ absolute / inch / decimal}
; #@! TF.CreationDate,2019-04-22T21:03:55-05:00
; #@! TF.GenerationSoftware,Kicad,Pcbnew,(5.1.0-0)
FMAT,2
INCH
T1C0.0130
T2C0.0217
T3C0.0236
T4C0.0300
T5C0.0315
T6C0.0512
%
G90
G05
T1
X5.41Y-4.24
X5.44Y-3.72
X5.9Y-3.51
X5.95Y-4.22
X6.37Y-3.4
X6.4Y-3.74
X6.7Y-4.22
X7.01Y-3.06
X7.07Y-3.49
X7.24Y-3.39
X7.78Y-4.24
X7.81Y-3.49
X7.89Y-4.15
T2
X7.175Y-3.825
X7.175Y-3.875
X7.175Y-3.925
X7.2Y-3.575
X7.2Y-3.625
X7.2Y-3.675
X6.225Y-3.575
X6.275Y-3.575
X6.325Y-3.575
X6.15Y-3.875
X6.15Y-3.925
X6.15Y-3.975
T3
X6.9909Y-3.275
X7.05Y-3.275
T4
X6.525Y-3.5762
X6.525Y-3.7238
X6.297Y-3.875
X6.553Y-3.875
X5.647Y-3.65
X5.903Y-3.65
X5.75Y-3.8478
X5.75Y-4.2022
X6.3978Y-4.075
X6.7522Y-4.075
X6.725Y-3.5407
X6.725Y-3.9093
X7.375Y-3.547
X7.375Y-3.803
X6.925Y-3.647
X6.925Y-3.903
X5.95Y-3.847
X5.95Y-4.103
X7.1122Y-4.125
X7.3878Y-4.125
T5
X7.325Y-3.125
X7.325Y-3.425
X7.5713Y-4.125
X7.65Y-4.125
T6
X5.325Y-3.875
X5.325Y-4.0719
X7.5781Y-3.275
X7.775Y-3.275
X5.6813Y-3.275
X5.8781Y-3.275
X6.075Y-3.275
X6.3813Y-3.275
X6.5781Y-3.275
X6.775Y-3.275
X7.71Y-3.6531
X7.71Y-3.85
X5.325Y-3.175
X5.325Y-3.3719
X5.325Y-3.5687
T0
M30
