G04 #@! TF.GenerationSoftware,KiCad,Pcbnew,(5.1.0-0)*
G04 #@! TF.CreationDate,2019-04-22T20:51:24-05:00*
G04 #@! TF.ProjectId,Brucester,42727563-6573-4746-9572-2e6b69636164,rev?*
G04 #@! TF.SameCoordinates,Original*
G04 #@! TF.FileFunction,Legend,Top*
G04 #@! TF.FilePolarity,Positive*
%FSLAX46Y46*%
G04 Gerber Fmt 4.6, Leading zero omitted, Abs format (unit mm)*
G04 Created by KiCad (PCBNEW (5.1.0-0)) date 2019-04-22 20:51:24*
%MOMM*%
%LPD*%
G04 APERTURE LIST*
%ADD10C,0.150000*%
%ADD11C,0.300000*%
%ADD12C,0.200000*%
%ADD13C,0.120000*%
%ADD14C,0.100000*%
G04 APERTURE END LIST*
D10*
X128341809Y-106545571D02*
X128484666Y-106593190D01*
X128532285Y-106640809D01*
X128579904Y-106736047D01*
X128579904Y-106878904D01*
X128532285Y-106974142D01*
X128484666Y-107021761D01*
X128389428Y-107069380D01*
X128008476Y-107069380D01*
X128008476Y-106069380D01*
X128341809Y-106069380D01*
X128437047Y-106117000D01*
X128484666Y-106164619D01*
X128532285Y-106259857D01*
X128532285Y-106355095D01*
X128484666Y-106450333D01*
X128437047Y-106497952D01*
X128341809Y-106545571D01*
X128008476Y-106545571D01*
X129008476Y-107069380D02*
X129008476Y-106402714D01*
X129008476Y-106593190D02*
X129056095Y-106497952D01*
X129103714Y-106450333D01*
X129198952Y-106402714D01*
X129294190Y-106402714D01*
X130056095Y-106402714D02*
X130056095Y-107069380D01*
X129627523Y-106402714D02*
X129627523Y-106926523D01*
X129675142Y-107021761D01*
X129770380Y-107069380D01*
X129913238Y-107069380D01*
X130008476Y-107021761D01*
X130056095Y-106974142D01*
X130960857Y-107021761D02*
X130865619Y-107069380D01*
X130675142Y-107069380D01*
X130579904Y-107021761D01*
X130532285Y-106974142D01*
X130484666Y-106878904D01*
X130484666Y-106593190D01*
X130532285Y-106497952D01*
X130579904Y-106450333D01*
X130675142Y-106402714D01*
X130865619Y-106402714D01*
X130960857Y-106450333D01*
X131770380Y-107021761D02*
X131675142Y-107069380D01*
X131484666Y-107069380D01*
X131389428Y-107021761D01*
X131341809Y-106926523D01*
X131341809Y-106545571D01*
X131389428Y-106450333D01*
X131484666Y-106402714D01*
X131675142Y-106402714D01*
X131770380Y-106450333D01*
X131818000Y-106545571D01*
X131818000Y-106640809D01*
X131341809Y-106736047D01*
X132198952Y-107021761D02*
X132294190Y-107069380D01*
X132484666Y-107069380D01*
X132579904Y-107021761D01*
X132627523Y-106926523D01*
X132627523Y-106878904D01*
X132579904Y-106783666D01*
X132484666Y-106736047D01*
X132341809Y-106736047D01*
X132246571Y-106688428D01*
X132198952Y-106593190D01*
X132198952Y-106545571D01*
X132246571Y-106450333D01*
X132341809Y-106402714D01*
X132484666Y-106402714D01*
X132579904Y-106450333D01*
X132913238Y-106402714D02*
X133294190Y-106402714D01*
X133056095Y-106069380D02*
X133056095Y-106926523D01*
X133103714Y-107021761D01*
X133198952Y-107069380D01*
X133294190Y-107069380D01*
X134008476Y-107021761D02*
X133913238Y-107069380D01*
X133722761Y-107069380D01*
X133627523Y-107021761D01*
X133579904Y-106926523D01*
X133579904Y-106545571D01*
X133627523Y-106450333D01*
X133722761Y-106402714D01*
X133913238Y-106402714D01*
X134008476Y-106450333D01*
X134056095Y-106545571D01*
X134056095Y-106640809D01*
X133579904Y-106736047D01*
X134484666Y-107069380D02*
X134484666Y-106402714D01*
X134484666Y-106593190D02*
X134532285Y-106497952D01*
X134579904Y-106450333D01*
X134675142Y-106402714D01*
X134770380Y-106402714D01*
X129246571Y-108719380D02*
X128913238Y-108243190D01*
X128675142Y-108719380D02*
X128675142Y-107719380D01*
X129056095Y-107719380D01*
X129151333Y-107767000D01*
X129198952Y-107814619D01*
X129246571Y-107909857D01*
X129246571Y-108052714D01*
X129198952Y-108147952D01*
X129151333Y-108195571D01*
X129056095Y-108243190D01*
X128675142Y-108243190D01*
X130056095Y-108671761D02*
X129960857Y-108719380D01*
X129770380Y-108719380D01*
X129675142Y-108671761D01*
X129627523Y-108576523D01*
X129627523Y-108195571D01*
X129675142Y-108100333D01*
X129770380Y-108052714D01*
X129960857Y-108052714D01*
X130056095Y-108100333D01*
X130103714Y-108195571D01*
X130103714Y-108290809D01*
X129627523Y-108386047D01*
X130437047Y-108052714D02*
X130675142Y-108719380D01*
X130913238Y-108052714D01*
X132579904Y-108719380D02*
X132008476Y-108719380D01*
X132294190Y-108719380D02*
X132294190Y-107719380D01*
X132198952Y-107862238D01*
X132103714Y-107957476D01*
X132008476Y-108005095D01*
X133008476Y-108624142D02*
X133056095Y-108671761D01*
X133008476Y-108719380D01*
X132960857Y-108671761D01*
X133008476Y-108624142D01*
X133008476Y-108719380D01*
X133675142Y-107719380D02*
X133770380Y-107719380D01*
X133865619Y-107767000D01*
X133913238Y-107814619D01*
X133960857Y-107909857D01*
X134008476Y-108100333D01*
X134008476Y-108338428D01*
X133960857Y-108528904D01*
X133913238Y-108624142D01*
X133865619Y-108671761D01*
X133770380Y-108719380D01*
X133675142Y-108719380D01*
X133579904Y-108671761D01*
X133532285Y-108624142D01*
X133484666Y-108528904D01*
X133437047Y-108338428D01*
X133437047Y-108100333D01*
X133484666Y-107909857D01*
X133532285Y-107814619D01*
X133579904Y-107767000D01*
X133675142Y-107719380D01*
D11*
X200723571Y-83292142D02*
X201866428Y-83292142D01*
X201295000Y-83863571D02*
X201295000Y-82720714D01*
D12*
X172630000Y-106005000D02*
X172630000Y-101005000D01*
X161380000Y-106005000D02*
X161380000Y-101005000D01*
X172630000Y-106005000D02*
X161380000Y-106005000D01*
X172630000Y-101005000D02*
X161380000Y-101005000D01*
X188650000Y-102525000D02*
X188650000Y-107025000D01*
X179650000Y-102525000D02*
X179650000Y-107025000D01*
X188650000Y-107025000D02*
X179650000Y-107025000D01*
X188650000Y-102525000D02*
X179650000Y-102525000D01*
X189325000Y-97485000D02*
X185325000Y-97495000D01*
X185325000Y-97495000D02*
X185325000Y-89195000D01*
X189325000Y-89195000D02*
X185325000Y-89195000D01*
X189325000Y-89195000D02*
X189325000Y-97495000D01*
X177895000Y-91735000D02*
X177895000Y-100035000D01*
X177895000Y-91735000D02*
X173895000Y-91735000D01*
X173895000Y-100035000D02*
X173895000Y-91735000D01*
X177895000Y-100025000D02*
X173895000Y-100035000D01*
D13*
X195930000Y-104775000D02*
G75*
G03X195930000Y-104775000I-2620000J0D01*
G01*
X193310000Y-103735000D02*
X193310000Y-102195000D01*
X193310000Y-107355000D02*
X193310000Y-105815000D01*
X193270000Y-103735000D02*
X193270000Y-102195000D01*
X193270000Y-107355000D02*
X193270000Y-105815000D01*
X193230000Y-107354000D02*
X193230000Y-105815000D01*
X193230000Y-103735000D02*
X193230000Y-102196000D01*
X193190000Y-107353000D02*
X193190000Y-105815000D01*
X193190000Y-103735000D02*
X193190000Y-102197000D01*
X193150000Y-107351000D02*
X193150000Y-105815000D01*
X193150000Y-103735000D02*
X193150000Y-102199000D01*
X193110000Y-107348000D02*
X193110000Y-105815000D01*
X193110000Y-103735000D02*
X193110000Y-102202000D01*
X193070000Y-107344000D02*
X193070000Y-105815000D01*
X193070000Y-103735000D02*
X193070000Y-102206000D01*
X193030000Y-107340000D02*
X193030000Y-105815000D01*
X193030000Y-103735000D02*
X193030000Y-102210000D01*
X192990000Y-107336000D02*
X192990000Y-105815000D01*
X192990000Y-103735000D02*
X192990000Y-102214000D01*
X192950000Y-107331000D02*
X192950000Y-105815000D01*
X192950000Y-103735000D02*
X192950000Y-102219000D01*
X192910000Y-107325000D02*
X192910000Y-105815000D01*
X192910000Y-103735000D02*
X192910000Y-102225000D01*
X192870000Y-107318000D02*
X192870000Y-105815000D01*
X192870000Y-103735000D02*
X192870000Y-102232000D01*
X192830000Y-107311000D02*
X192830000Y-105815000D01*
X192830000Y-103735000D02*
X192830000Y-102239000D01*
X192790000Y-107303000D02*
X192790000Y-105815000D01*
X192790000Y-103735000D02*
X192790000Y-102247000D01*
X192750000Y-107295000D02*
X192750000Y-105815000D01*
X192750000Y-103735000D02*
X192750000Y-102255000D01*
X192710000Y-107286000D02*
X192710000Y-105815000D01*
X192710000Y-103735000D02*
X192710000Y-102264000D01*
X192670000Y-107276000D02*
X192670000Y-105815000D01*
X192670000Y-103735000D02*
X192670000Y-102274000D01*
X192630000Y-107266000D02*
X192630000Y-105815000D01*
X192630000Y-103735000D02*
X192630000Y-102284000D01*
X192589000Y-107255000D02*
X192589000Y-105815000D01*
X192589000Y-103735000D02*
X192589000Y-102295000D01*
X192549000Y-107243000D02*
X192549000Y-105815000D01*
X192549000Y-103735000D02*
X192549000Y-102307000D01*
X192509000Y-107230000D02*
X192509000Y-105815000D01*
X192509000Y-103735000D02*
X192509000Y-102320000D01*
X192469000Y-107217000D02*
X192469000Y-105815000D01*
X192469000Y-103735000D02*
X192469000Y-102333000D01*
X192429000Y-107203000D02*
X192429000Y-105815000D01*
X192429000Y-103735000D02*
X192429000Y-102347000D01*
X192389000Y-107189000D02*
X192389000Y-105815000D01*
X192389000Y-103735000D02*
X192389000Y-102361000D01*
X192349000Y-107173000D02*
X192349000Y-105815000D01*
X192349000Y-103735000D02*
X192349000Y-102377000D01*
X192309000Y-107157000D02*
X192309000Y-105815000D01*
X192309000Y-103735000D02*
X192309000Y-102393000D01*
X192269000Y-107140000D02*
X192269000Y-105815000D01*
X192269000Y-103735000D02*
X192269000Y-102410000D01*
X192229000Y-107123000D02*
X192229000Y-105815000D01*
X192229000Y-103735000D02*
X192229000Y-102427000D01*
X192189000Y-107104000D02*
X192189000Y-105815000D01*
X192189000Y-103735000D02*
X192189000Y-102446000D01*
X192149000Y-107085000D02*
X192149000Y-105815000D01*
X192149000Y-103735000D02*
X192149000Y-102465000D01*
X192109000Y-107065000D02*
X192109000Y-105815000D01*
X192109000Y-103735000D02*
X192109000Y-102485000D01*
X192069000Y-107043000D02*
X192069000Y-105815000D01*
X192069000Y-103735000D02*
X192069000Y-102507000D01*
X192029000Y-107022000D02*
X192029000Y-105815000D01*
X192029000Y-103735000D02*
X192029000Y-102528000D01*
X191989000Y-106999000D02*
X191989000Y-105815000D01*
X191989000Y-103735000D02*
X191989000Y-102551000D01*
X191949000Y-106975000D02*
X191949000Y-105815000D01*
X191949000Y-103735000D02*
X191949000Y-102575000D01*
X191909000Y-106950000D02*
X191909000Y-105815000D01*
X191909000Y-103735000D02*
X191909000Y-102600000D01*
X191869000Y-106924000D02*
X191869000Y-105815000D01*
X191869000Y-103735000D02*
X191869000Y-102626000D01*
X191829000Y-106897000D02*
X191829000Y-105815000D01*
X191829000Y-103735000D02*
X191829000Y-102653000D01*
X191789000Y-106870000D02*
X191789000Y-105815000D01*
X191789000Y-103735000D02*
X191789000Y-102680000D01*
X191749000Y-106840000D02*
X191749000Y-105815000D01*
X191749000Y-103735000D02*
X191749000Y-102710000D01*
X191709000Y-106810000D02*
X191709000Y-105815000D01*
X191709000Y-103735000D02*
X191709000Y-102740000D01*
X191669000Y-106779000D02*
X191669000Y-105815000D01*
X191669000Y-103735000D02*
X191669000Y-102771000D01*
X191629000Y-106746000D02*
X191629000Y-105815000D01*
X191629000Y-103735000D02*
X191629000Y-102804000D01*
X191589000Y-106712000D02*
X191589000Y-105815000D01*
X191589000Y-103735000D02*
X191589000Y-102838000D01*
X191549000Y-106676000D02*
X191549000Y-105815000D01*
X191549000Y-103735000D02*
X191549000Y-102874000D01*
X191509000Y-106639000D02*
X191509000Y-105815000D01*
X191509000Y-103735000D02*
X191509000Y-102911000D01*
X191469000Y-106601000D02*
X191469000Y-105815000D01*
X191469000Y-103735000D02*
X191469000Y-102949000D01*
X191429000Y-106560000D02*
X191429000Y-105815000D01*
X191429000Y-103735000D02*
X191429000Y-102990000D01*
X191389000Y-106518000D02*
X191389000Y-105815000D01*
X191389000Y-103735000D02*
X191389000Y-103032000D01*
X191349000Y-106474000D02*
X191349000Y-105815000D01*
X191349000Y-103735000D02*
X191349000Y-103076000D01*
X191309000Y-106428000D02*
X191309000Y-105815000D01*
X191309000Y-103735000D02*
X191309000Y-103122000D01*
X191269000Y-106380000D02*
X191269000Y-103170000D01*
X191229000Y-106329000D02*
X191229000Y-103221000D01*
X191189000Y-106275000D02*
X191189000Y-103275000D01*
X191149000Y-106218000D02*
X191149000Y-103332000D01*
X191109000Y-106158000D02*
X191109000Y-103392000D01*
X191069000Y-106094000D02*
X191069000Y-103456000D01*
X191029000Y-106026000D02*
X191029000Y-103524000D01*
X190989000Y-105953000D02*
X190989000Y-103597000D01*
X190949000Y-105873000D02*
X190949000Y-103677000D01*
X190909000Y-105786000D02*
X190909000Y-103764000D01*
X190869000Y-105690000D02*
X190869000Y-103860000D01*
X190829000Y-105580000D02*
X190829000Y-103970000D01*
X190789000Y-105452000D02*
X190789000Y-104098000D01*
X190749000Y-105293000D02*
X190749000Y-104257000D01*
X190709000Y-105059000D02*
X190709000Y-104491000D01*
X196114775Y-106250000D02*
X195614775Y-106250000D01*
X195864775Y-106500000D02*
X195864775Y-106000000D01*
D12*
X172815000Y-100315000D02*
X168815000Y-100315000D01*
X172815000Y-88915000D02*
X168815000Y-88915000D01*
X168815000Y-100315000D02*
X168815000Y-88915000D01*
X172815000Y-100315000D02*
X172815000Y-88915000D01*
X164485000Y-95710000D02*
X166985000Y-95710000D01*
X164485000Y-89710000D02*
X166985000Y-89710000D01*
X164485000Y-89710000D02*
X164485000Y-95710000D01*
X166985000Y-89710000D02*
X166985000Y-95710000D01*
X159055000Y-100425000D02*
X159045000Y-96425000D01*
X159045000Y-96425000D02*
X167345000Y-96425000D01*
X167345000Y-100425000D02*
X167345000Y-96425000D01*
X167345000Y-100425000D02*
X159045000Y-100425000D01*
X142545000Y-94710000D02*
X142535000Y-90710000D01*
X142535000Y-90710000D02*
X150835000Y-90710000D01*
X150835000Y-94710000D02*
X150835000Y-90710000D01*
X150835000Y-94710000D02*
X142535000Y-94710000D01*
X153130000Y-96815000D02*
X153130000Y-105115000D01*
X153130000Y-96815000D02*
X149130000Y-96815000D01*
X149130000Y-105115000D02*
X149130000Y-96815000D01*
X153130000Y-105105000D02*
X149130000Y-105115000D01*
D13*
X180440000Y-83185000D02*
G75*
G03X180440000Y-83185000I-2120000J0D01*
G01*
X178320000Y-82345000D02*
X178320000Y-81105000D01*
X178320000Y-85265000D02*
X178320000Y-84025000D01*
X178280000Y-82345000D02*
X178280000Y-81105000D01*
X178280000Y-85265000D02*
X178280000Y-84025000D01*
X178240000Y-82345000D02*
X178240000Y-81106000D01*
X178240000Y-85264000D02*
X178240000Y-84025000D01*
X178200000Y-85262000D02*
X178200000Y-84025000D01*
X178200000Y-82345000D02*
X178200000Y-81108000D01*
X178160000Y-85259000D02*
X178160000Y-84025000D01*
X178160000Y-82345000D02*
X178160000Y-81111000D01*
X178120000Y-85256000D02*
X178120000Y-84025000D01*
X178120000Y-82345000D02*
X178120000Y-81114000D01*
X178080000Y-85252000D02*
X178080000Y-84025000D01*
X178080000Y-82345000D02*
X178080000Y-81118000D01*
X178040000Y-85247000D02*
X178040000Y-84025000D01*
X178040000Y-82345000D02*
X178040000Y-81123000D01*
X178000000Y-85241000D02*
X178000000Y-84025000D01*
X178000000Y-82345000D02*
X178000000Y-81129000D01*
X177960000Y-85235000D02*
X177960000Y-84025000D01*
X177960000Y-82345000D02*
X177960000Y-81135000D01*
X177920000Y-85227000D02*
X177920000Y-84025000D01*
X177920000Y-82345000D02*
X177920000Y-81143000D01*
X177880000Y-85219000D02*
X177880000Y-84025000D01*
X177880000Y-82345000D02*
X177880000Y-81151000D01*
X177840000Y-85210000D02*
X177840000Y-84025000D01*
X177840000Y-82345000D02*
X177840000Y-81160000D01*
X177800000Y-85201000D02*
X177800000Y-84025000D01*
X177800000Y-82345000D02*
X177800000Y-81169000D01*
X177760000Y-85190000D02*
X177760000Y-84025000D01*
X177760000Y-82345000D02*
X177760000Y-81180000D01*
X177720000Y-85179000D02*
X177720000Y-84025000D01*
X177720000Y-82345000D02*
X177720000Y-81191000D01*
X177680000Y-85167000D02*
X177680000Y-84025000D01*
X177680000Y-82345000D02*
X177680000Y-81203000D01*
X177640000Y-85153000D02*
X177640000Y-84025000D01*
X177640000Y-82345000D02*
X177640000Y-81217000D01*
X177599000Y-85139000D02*
X177599000Y-84025000D01*
X177599000Y-82345000D02*
X177599000Y-81231000D01*
X177559000Y-85125000D02*
X177559000Y-84025000D01*
X177559000Y-82345000D02*
X177559000Y-81245000D01*
X177519000Y-85109000D02*
X177519000Y-84025000D01*
X177519000Y-82345000D02*
X177519000Y-81261000D01*
X177479000Y-85092000D02*
X177479000Y-84025000D01*
X177479000Y-82345000D02*
X177479000Y-81278000D01*
X177439000Y-85074000D02*
X177439000Y-84025000D01*
X177439000Y-82345000D02*
X177439000Y-81296000D01*
X177399000Y-85055000D02*
X177399000Y-84025000D01*
X177399000Y-82345000D02*
X177399000Y-81315000D01*
X177359000Y-85036000D02*
X177359000Y-84025000D01*
X177359000Y-82345000D02*
X177359000Y-81334000D01*
X177319000Y-85015000D02*
X177319000Y-84025000D01*
X177319000Y-82345000D02*
X177319000Y-81355000D01*
X177279000Y-84993000D02*
X177279000Y-84025000D01*
X177279000Y-82345000D02*
X177279000Y-81377000D01*
X177239000Y-84970000D02*
X177239000Y-84025000D01*
X177239000Y-82345000D02*
X177239000Y-81400000D01*
X177199000Y-84945000D02*
X177199000Y-84025000D01*
X177199000Y-82345000D02*
X177199000Y-81425000D01*
X177159000Y-84920000D02*
X177159000Y-84025000D01*
X177159000Y-82345000D02*
X177159000Y-81450000D01*
X177119000Y-84893000D02*
X177119000Y-84025000D01*
X177119000Y-82345000D02*
X177119000Y-81477000D01*
X177079000Y-84865000D02*
X177079000Y-84025000D01*
X177079000Y-82345000D02*
X177079000Y-81505000D01*
X177039000Y-84835000D02*
X177039000Y-84025000D01*
X177039000Y-82345000D02*
X177039000Y-81535000D01*
X176999000Y-84804000D02*
X176999000Y-84025000D01*
X176999000Y-82345000D02*
X176999000Y-81566000D01*
X176959000Y-84772000D02*
X176959000Y-84025000D01*
X176959000Y-82345000D02*
X176959000Y-81598000D01*
X176919000Y-84737000D02*
X176919000Y-84025000D01*
X176919000Y-82345000D02*
X176919000Y-81633000D01*
X176879000Y-84701000D02*
X176879000Y-84025000D01*
X176879000Y-82345000D02*
X176879000Y-81669000D01*
X176839000Y-84663000D02*
X176839000Y-84025000D01*
X176839000Y-82345000D02*
X176839000Y-81707000D01*
X176799000Y-84623000D02*
X176799000Y-84025000D01*
X176799000Y-82345000D02*
X176799000Y-81747000D01*
X176759000Y-84581000D02*
X176759000Y-84025000D01*
X176759000Y-82345000D02*
X176759000Y-81789000D01*
X176719000Y-84536000D02*
X176719000Y-81834000D01*
X176679000Y-84489000D02*
X176679000Y-81881000D01*
X176639000Y-84439000D02*
X176639000Y-81931000D01*
X176599000Y-84385000D02*
X176599000Y-81985000D01*
X176559000Y-84327000D02*
X176559000Y-82043000D01*
X176519000Y-84265000D02*
X176519000Y-82105000D01*
X176479000Y-84198000D02*
X176479000Y-82172000D01*
X176439000Y-84125000D02*
X176439000Y-82245000D01*
X176399000Y-84044000D02*
X176399000Y-82326000D01*
X176359000Y-83953000D02*
X176359000Y-82417000D01*
X176319000Y-83849000D02*
X176319000Y-82521000D01*
X176279000Y-83722000D02*
X176279000Y-82648000D01*
X176239000Y-83555000D02*
X176239000Y-82815000D01*
X180589801Y-84380000D02*
X180189801Y-84380000D01*
X180389801Y-84580000D02*
X180389801Y-84180000D01*
D12*
X143550000Y-96610000D02*
X143550000Y-107860000D01*
X148550000Y-96610000D02*
X148550000Y-107860000D01*
X148550000Y-107860000D02*
X143550000Y-107860000D01*
X148550000Y-96610000D02*
X143550000Y-96610000D01*
D13*
X142315000Y-98498922D02*
X142315000Y-99016078D01*
X140895000Y-98498922D02*
X140895000Y-99016078D01*
X184935000Y-85305000D02*
X187175000Y-85305000D01*
X187175000Y-85305000D02*
X187175000Y-81065000D01*
X187175000Y-81065000D02*
X184935000Y-81065000D01*
X184935000Y-81065000D02*
X184935000Y-85305000D01*
X186055000Y-85955000D02*
X186055000Y-85305000D01*
X186055000Y-80415000D02*
X186055000Y-81065000D01*
X184935000Y-84585000D02*
X187175000Y-84585000D01*
X184935000Y-84465000D02*
X187175000Y-84465000D01*
X184935000Y-84705000D02*
X187175000Y-84705000D01*
X201134000Y-100590000D02*
X201134000Y-100190000D01*
X200494000Y-100590000D02*
X201134000Y-100590000D01*
X196826000Y-94048000D02*
X197222000Y-94443000D01*
X194180000Y-91402000D02*
X194560000Y-91782000D01*
X197108000Y-93797000D02*
X197488000Y-94177000D01*
X194446000Y-91136000D02*
X194842000Y-91531000D01*
X197115000Y-99338000D02*
X197222000Y-99444000D01*
X194180000Y-96402000D02*
X194287000Y-96509000D01*
X197381000Y-99072000D02*
X197488000Y-99178000D01*
X194446000Y-96136000D02*
X194553000Y-96243000D01*
X191774000Y-90230000D02*
X200894000Y-90230000D01*
X191774000Y-100350000D02*
X200894000Y-100350000D01*
X200894000Y-100350000D02*
X200894000Y-90230000D01*
X191774000Y-100350000D02*
X191774000Y-90230000D01*
X199334000Y-100350000D02*
X199334000Y-90230000D01*
X200434000Y-100350000D02*
X200434000Y-90230000D01*
X198014000Y-92790000D02*
G75*
G03X198014000Y-92790000I-2180000J0D01*
G01*
X198014000Y-97790000D02*
G75*
G03X198014000Y-97790000I-2180000J0D01*
G01*
X199665000Y-83185000D02*
G75*
G03X199665000Y-83185000I-2180000J0D01*
G01*
X194665000Y-83185000D02*
G75*
G03X194665000Y-83185000I-2180000J0D01*
G01*
X200045000Y-78585000D02*
X189925000Y-78585000D01*
X200045000Y-79685000D02*
X189925000Y-79685000D01*
X200045000Y-87245000D02*
X189925000Y-87245000D01*
X200045000Y-78125000D02*
X189925000Y-78125000D01*
X200045000Y-87245000D02*
X200045000Y-78125000D01*
X189925000Y-87245000D02*
X189925000Y-78125000D01*
X195831000Y-84573000D02*
X195938000Y-84466000D01*
X198767000Y-81638000D02*
X198873000Y-81531000D01*
X196097000Y-84839000D02*
X196204000Y-84732000D01*
X199033000Y-81904000D02*
X199139000Y-81797000D01*
X190831000Y-84573000D02*
X191226000Y-84177000D01*
X193492000Y-81911000D02*
X193872000Y-81531000D01*
X191097000Y-84839000D02*
X191477000Y-84459000D01*
X193743000Y-82193000D02*
X194138000Y-81797000D01*
X200285000Y-78525000D02*
X200285000Y-77885000D01*
X200285000Y-77885000D02*
X199885000Y-77885000D01*
X137435000Y-98425000D02*
G75*
G03X137435000Y-98425000I-2180000J0D01*
G01*
X137435000Y-103425000D02*
G75*
G03X137435000Y-103425000I-2180000J0D01*
G01*
X130655000Y-95865000D02*
X130655000Y-105985000D01*
X131755000Y-95865000D02*
X131755000Y-105985000D01*
X139315000Y-95865000D02*
X139315000Y-105985000D01*
X130195000Y-95865000D02*
X130195000Y-105985000D01*
X139315000Y-95865000D02*
X130195000Y-95865000D01*
X139315000Y-105985000D02*
X130195000Y-105985000D01*
X136643000Y-100079000D02*
X136536000Y-99972000D01*
X133708000Y-97143000D02*
X133601000Y-97037000D01*
X136909000Y-99813000D02*
X136802000Y-99706000D01*
X133974000Y-96877000D02*
X133867000Y-96771000D01*
X136643000Y-105079000D02*
X136247000Y-104684000D01*
X133981000Y-102418000D02*
X133601000Y-102038000D01*
X136909000Y-104813000D02*
X136529000Y-104433000D01*
X134263000Y-102167000D02*
X133867000Y-101772000D01*
X130595000Y-95625000D02*
X129955000Y-95625000D01*
X129955000Y-95625000D02*
X129955000Y-96025000D01*
D14*
X184480000Y-94425000D02*
X184180000Y-94575000D01*
X184480000Y-94125000D02*
X184480000Y-94425000D01*
X184480000Y-89725000D02*
X184480000Y-90025000D01*
X184480000Y-89725000D02*
X184180000Y-89575000D01*
D10*
X181330000Y-90125000D02*
G75*
G03X181280000Y-93975000I1900000J-1950000D01*
G01*
X183795000Y-100375000D02*
G75*
G03X183845000Y-96525000I-1900000J1950000D01*
G01*
D14*
X180645000Y-100775000D02*
X180945000Y-100925000D01*
X180645000Y-100775000D02*
X180645000Y-100475000D01*
X180645000Y-96375000D02*
X180645000Y-96075000D01*
X180645000Y-96075000D02*
X180945000Y-95925000D01*
X161735000Y-89205000D02*
X161885000Y-89505000D01*
X161435000Y-89205000D02*
X161735000Y-89205000D01*
X157035000Y-89205000D02*
X157335000Y-89205000D01*
X157035000Y-89205000D02*
X156885000Y-89505000D01*
D10*
X157435000Y-92355000D02*
G75*
G03X161285000Y-92405000I1950000J1900000D01*
G01*
X154660000Y-97745000D02*
G75*
G03X154610000Y-101595000I1900000J-1950000D01*
G01*
D14*
X157810000Y-97345000D02*
X157510000Y-97195000D01*
X157810000Y-97345000D02*
X157810000Y-97645000D01*
X157810000Y-101745000D02*
X157810000Y-102045000D01*
X157810000Y-102045000D02*
X157510000Y-102195000D01*
D13*
X160095000Y-106421422D02*
X160095000Y-106938578D01*
X158675000Y-106421422D02*
X158675000Y-106938578D01*
X175335000Y-102493578D02*
X175335000Y-101976422D01*
X173915000Y-102493578D02*
X173915000Y-101976422D01*
X181535000Y-85983578D02*
X181535000Y-85466422D01*
X182955000Y-85983578D02*
X182955000Y-85466422D01*
X182955000Y-80571078D02*
X182955000Y-80053922D01*
X181535000Y-80571078D02*
X181535000Y-80053922D01*
X177875000Y-101976422D02*
X177875000Y-102493578D01*
X176455000Y-101976422D02*
X176455000Y-102493578D01*
X186615000Y-99738922D02*
X186615000Y-100256078D01*
X188035000Y-99738922D02*
X188035000Y-100256078D01*
X175938922Y-88190000D02*
X176456078Y-88190000D01*
X175938922Y-89610000D02*
X176456078Y-89610000D01*
X155015000Y-89608922D02*
X155015000Y-90126078D01*
X153595000Y-89608922D02*
X153595000Y-90126078D01*
X153595000Y-93388922D02*
X153595000Y-93906078D01*
X155015000Y-93388922D02*
X155015000Y-93906078D01*
X158675000Y-102611422D02*
X158675000Y-103128578D01*
X160095000Y-102611422D02*
X160095000Y-103128578D01*
X156285000Y-104818922D02*
X156285000Y-105336078D01*
X154865000Y-104818922D02*
X154865000Y-105336078D01*
X142315000Y-104731078D02*
X142315000Y-104213922D01*
X140895000Y-104731078D02*
X140895000Y-104213922D01*
X143436078Y-89610000D02*
X142918922Y-89610000D01*
X143436078Y-88190000D02*
X142918922Y-88190000D01*
X174265000Y-83185000D02*
G75*
G03X174265000Y-83185000I-2180000J0D01*
G01*
X169265000Y-83185000D02*
G75*
G03X169265000Y-83185000I-2180000J0D01*
G01*
X164265000Y-83185000D02*
G75*
G03X164265000Y-83185000I-2180000J0D01*
G01*
X174645000Y-78585000D02*
X159525000Y-78585000D01*
X174645000Y-79685000D02*
X159525000Y-79685000D01*
X174645000Y-87245000D02*
X159525000Y-87245000D01*
X174645000Y-78125000D02*
X159525000Y-78125000D01*
X174645000Y-87245000D02*
X174645000Y-78125000D01*
X159525000Y-87245000D02*
X159525000Y-78125000D01*
X170431000Y-84573000D02*
X170538000Y-84466000D01*
X173367000Y-81638000D02*
X173473000Y-81531000D01*
X170697000Y-84839000D02*
X170804000Y-84732000D01*
X173633000Y-81904000D02*
X173739000Y-81797000D01*
X165431000Y-84573000D02*
X165826000Y-84177000D01*
X168092000Y-81911000D02*
X168472000Y-81531000D01*
X165697000Y-84839000D02*
X166077000Y-84459000D01*
X168343000Y-82193000D02*
X168738000Y-81797000D01*
X160431000Y-84573000D02*
X160826000Y-84177000D01*
X163092000Y-81911000D02*
X163472000Y-81531000D01*
X160697000Y-84839000D02*
X161077000Y-84459000D01*
X163343000Y-82193000D02*
X163738000Y-81797000D01*
X174885000Y-78525000D02*
X174885000Y-77885000D01*
X174885000Y-77885000D02*
X174485000Y-77885000D01*
X157105000Y-77885000D02*
X156705000Y-77885000D01*
X157105000Y-78525000D02*
X157105000Y-77885000D01*
X145563000Y-82193000D02*
X145958000Y-81797000D01*
X142917000Y-84839000D02*
X143297000Y-84459000D01*
X145312000Y-81911000D02*
X145692000Y-81531000D01*
X142651000Y-84573000D02*
X143046000Y-84177000D01*
X150563000Y-82193000D02*
X150958000Y-81797000D01*
X147917000Y-84839000D02*
X148297000Y-84459000D01*
X150312000Y-81911000D02*
X150692000Y-81531000D01*
X147651000Y-84573000D02*
X148046000Y-84177000D01*
X155853000Y-81904000D02*
X155959000Y-81797000D01*
X152917000Y-84839000D02*
X153024000Y-84732000D01*
X155587000Y-81638000D02*
X155693000Y-81531000D01*
X152651000Y-84573000D02*
X152758000Y-84466000D01*
X141745000Y-87245000D02*
X141745000Y-78125000D01*
X156865000Y-87245000D02*
X156865000Y-78125000D01*
X156865000Y-78125000D02*
X141745000Y-78125000D01*
X156865000Y-87245000D02*
X141745000Y-87245000D01*
X156865000Y-79685000D02*
X141745000Y-79685000D01*
X156865000Y-78585000D02*
X141745000Y-78585000D01*
X146485000Y-83185000D02*
G75*
G03X146485000Y-83185000I-2180000J0D01*
G01*
X151485000Y-83185000D02*
G75*
G03X151485000Y-83185000I-2180000J0D01*
G01*
X156485000Y-83185000D02*
G75*
G03X156485000Y-83185000I-2180000J0D01*
G01*
X137435000Y-80645000D02*
G75*
G03X137435000Y-80645000I-2180000J0D01*
G01*
X137435000Y-85645000D02*
G75*
G03X137435000Y-85645000I-2180000J0D01*
G01*
X137435000Y-90645000D02*
G75*
G03X137435000Y-90645000I-2180000J0D01*
G01*
X130655000Y-78085000D02*
X130655000Y-93205000D01*
X131755000Y-78085000D02*
X131755000Y-93205000D01*
X139315000Y-78085000D02*
X139315000Y-93205000D01*
X130195000Y-78085000D02*
X130195000Y-93205000D01*
X139315000Y-78085000D02*
X130195000Y-78085000D01*
X139315000Y-93205000D02*
X130195000Y-93205000D01*
X136643000Y-82299000D02*
X136536000Y-82192000D01*
X133708000Y-79363000D02*
X133601000Y-79257000D01*
X136909000Y-82033000D02*
X136802000Y-81926000D01*
X133974000Y-79097000D02*
X133867000Y-78991000D01*
X136643000Y-87299000D02*
X136247000Y-86904000D01*
X133981000Y-84638000D02*
X133601000Y-84258000D01*
X136909000Y-87033000D02*
X136529000Y-86653000D01*
X134263000Y-84387000D02*
X133867000Y-83992000D01*
X136643000Y-92299000D02*
X136247000Y-91904000D01*
X133981000Y-89638000D02*
X133601000Y-89258000D01*
X136909000Y-92033000D02*
X136529000Y-91653000D01*
X134263000Y-89387000D02*
X133867000Y-88992000D01*
X130595000Y-77845000D02*
X129955000Y-77845000D01*
X129955000Y-77845000D02*
X129955000Y-78245000D01*
D10*
X166838333Y-105132142D02*
X166790714Y-105179761D01*
X166647857Y-105227380D01*
X166552619Y-105227380D01*
X166409761Y-105179761D01*
X166314523Y-105084523D01*
X166266904Y-104989285D01*
X166219285Y-104798809D01*
X166219285Y-104655952D01*
X166266904Y-104465476D01*
X166314523Y-104370238D01*
X166409761Y-104275000D01*
X166552619Y-104227380D01*
X166647857Y-104227380D01*
X166790714Y-104275000D01*
X166838333Y-104322619D01*
X167790714Y-105227380D02*
X167219285Y-105227380D01*
X167505000Y-105227380D02*
X167505000Y-104227380D01*
X167409761Y-104370238D01*
X167314523Y-104465476D01*
X167219285Y-104513095D01*
X183983333Y-103862142D02*
X183935714Y-103909761D01*
X183792857Y-103957380D01*
X183697619Y-103957380D01*
X183554761Y-103909761D01*
X183459523Y-103814523D01*
X183411904Y-103719285D01*
X183364285Y-103528809D01*
X183364285Y-103385952D01*
X183411904Y-103195476D01*
X183459523Y-103100238D01*
X183554761Y-103005000D01*
X183697619Y-102957380D01*
X183792857Y-102957380D01*
X183935714Y-103005000D01*
X183983333Y-103052619D01*
X184364285Y-103052619D02*
X184411904Y-103005000D01*
X184507142Y-102957380D01*
X184745238Y-102957380D01*
X184840476Y-103005000D01*
X184888095Y-103052619D01*
X184935714Y-103147857D01*
X184935714Y-103243095D01*
X184888095Y-103385952D01*
X184316666Y-103957380D01*
X184935714Y-103957380D01*
X186412142Y-93511666D02*
X186459761Y-93559285D01*
X186507380Y-93702142D01*
X186507380Y-93797380D01*
X186459761Y-93940238D01*
X186364523Y-94035476D01*
X186269285Y-94083095D01*
X186078809Y-94130714D01*
X185935952Y-94130714D01*
X185745476Y-94083095D01*
X185650238Y-94035476D01*
X185555000Y-93940238D01*
X185507380Y-93797380D01*
X185507380Y-93702142D01*
X185555000Y-93559285D01*
X185602619Y-93511666D01*
X185507380Y-93178333D02*
X185507380Y-92559285D01*
X185888333Y-92892619D01*
X185888333Y-92749761D01*
X185935952Y-92654523D01*
X185983571Y-92606904D01*
X186078809Y-92559285D01*
X186316904Y-92559285D01*
X186412142Y-92606904D01*
X186459761Y-92654523D01*
X186507380Y-92749761D01*
X186507380Y-93035476D01*
X186459761Y-93130714D01*
X186412142Y-93178333D01*
X176109333Y-95861142D02*
X176061714Y-95908761D01*
X175918857Y-95956380D01*
X175823619Y-95956380D01*
X175680761Y-95908761D01*
X175585523Y-95813523D01*
X175537904Y-95718285D01*
X175490285Y-95527809D01*
X175490285Y-95384952D01*
X175537904Y-95194476D01*
X175585523Y-95099238D01*
X175680761Y-95004000D01*
X175823619Y-94956380D01*
X175918857Y-94956380D01*
X176061714Y-95004000D01*
X176109333Y-95051619D01*
X176966476Y-95289714D02*
X176966476Y-95956380D01*
X176728380Y-94908761D02*
X176490285Y-95623047D01*
X177109333Y-95623047D01*
X196937333Y-104751142D02*
X196889714Y-104798761D01*
X196746857Y-104846380D01*
X196651619Y-104846380D01*
X196508761Y-104798761D01*
X196413523Y-104703523D01*
X196365904Y-104608285D01*
X196318285Y-104417809D01*
X196318285Y-104274952D01*
X196365904Y-104084476D01*
X196413523Y-103989238D01*
X196508761Y-103894000D01*
X196651619Y-103846380D01*
X196746857Y-103846380D01*
X196889714Y-103894000D01*
X196937333Y-103941619D01*
X197842095Y-103846380D02*
X197365904Y-103846380D01*
X197318285Y-104322571D01*
X197365904Y-104274952D01*
X197461142Y-104227333D01*
X197699238Y-104227333D01*
X197794476Y-104274952D01*
X197842095Y-104322571D01*
X197889714Y-104417809D01*
X197889714Y-104655904D01*
X197842095Y-104751142D01*
X197794476Y-104798761D01*
X197699238Y-104846380D01*
X197461142Y-104846380D01*
X197365904Y-104798761D01*
X197318285Y-104751142D01*
X170775333Y-94845142D02*
X170727714Y-94892761D01*
X170584857Y-94940380D01*
X170489619Y-94940380D01*
X170346761Y-94892761D01*
X170251523Y-94797523D01*
X170203904Y-94702285D01*
X170156285Y-94511809D01*
X170156285Y-94368952D01*
X170203904Y-94178476D01*
X170251523Y-94083238D01*
X170346761Y-93988000D01*
X170489619Y-93940380D01*
X170584857Y-93940380D01*
X170727714Y-93988000D01*
X170775333Y-94035619D01*
X171632476Y-93940380D02*
X171442000Y-93940380D01*
X171346761Y-93988000D01*
X171299142Y-94035619D01*
X171203904Y-94178476D01*
X171156285Y-94368952D01*
X171156285Y-94749904D01*
X171203904Y-94845142D01*
X171251523Y-94892761D01*
X171346761Y-94940380D01*
X171537238Y-94940380D01*
X171632476Y-94892761D01*
X171680095Y-94845142D01*
X171727714Y-94749904D01*
X171727714Y-94511809D01*
X171680095Y-94416571D01*
X171632476Y-94368952D01*
X171537238Y-94321333D01*
X171346761Y-94321333D01*
X171251523Y-94368952D01*
X171203904Y-94416571D01*
X171156285Y-94511809D01*
X165441333Y-93067142D02*
X165393714Y-93114761D01*
X165250857Y-93162380D01*
X165155619Y-93162380D01*
X165012761Y-93114761D01*
X164917523Y-93019523D01*
X164869904Y-92924285D01*
X164822285Y-92733809D01*
X164822285Y-92590952D01*
X164869904Y-92400476D01*
X164917523Y-92305238D01*
X165012761Y-92210000D01*
X165155619Y-92162380D01*
X165250857Y-92162380D01*
X165393714Y-92210000D01*
X165441333Y-92257619D01*
X165774666Y-92162380D02*
X166441333Y-92162380D01*
X166012761Y-93162380D01*
X163028333Y-100052142D02*
X162980714Y-100099761D01*
X162837857Y-100147380D01*
X162742619Y-100147380D01*
X162599761Y-100099761D01*
X162504523Y-100004523D01*
X162456904Y-99909285D01*
X162409285Y-99718809D01*
X162409285Y-99575952D01*
X162456904Y-99385476D01*
X162504523Y-99290238D01*
X162599761Y-99195000D01*
X162742619Y-99147380D01*
X162837857Y-99147380D01*
X162980714Y-99195000D01*
X163028333Y-99242619D01*
X163599761Y-99575952D02*
X163504523Y-99528333D01*
X163456904Y-99480714D01*
X163409285Y-99385476D01*
X163409285Y-99337857D01*
X163456904Y-99242619D01*
X163504523Y-99195000D01*
X163599761Y-99147380D01*
X163790238Y-99147380D01*
X163885476Y-99195000D01*
X163933095Y-99242619D01*
X163980714Y-99337857D01*
X163980714Y-99385476D01*
X163933095Y-99480714D01*
X163885476Y-99528333D01*
X163790238Y-99575952D01*
X163599761Y-99575952D01*
X163504523Y-99623571D01*
X163456904Y-99671190D01*
X163409285Y-99766428D01*
X163409285Y-99956904D01*
X163456904Y-100052142D01*
X163504523Y-100099761D01*
X163599761Y-100147380D01*
X163790238Y-100147380D01*
X163885476Y-100099761D01*
X163933095Y-100052142D01*
X163980714Y-99956904D01*
X163980714Y-99766428D01*
X163933095Y-99671190D01*
X163885476Y-99623571D01*
X163790238Y-99575952D01*
X146518333Y-91797142D02*
X146470714Y-91844761D01*
X146327857Y-91892380D01*
X146232619Y-91892380D01*
X146089761Y-91844761D01*
X145994523Y-91749523D01*
X145946904Y-91654285D01*
X145899285Y-91463809D01*
X145899285Y-91320952D01*
X145946904Y-91130476D01*
X145994523Y-91035238D01*
X146089761Y-90940000D01*
X146232619Y-90892380D01*
X146327857Y-90892380D01*
X146470714Y-90940000D01*
X146518333Y-90987619D01*
X146994523Y-91892380D02*
X147185000Y-91892380D01*
X147280238Y-91844761D01*
X147327857Y-91797142D01*
X147423095Y-91654285D01*
X147470714Y-91463809D01*
X147470714Y-91082857D01*
X147423095Y-90987619D01*
X147375476Y-90940000D01*
X147280238Y-90892380D01*
X147089761Y-90892380D01*
X146994523Y-90940000D01*
X146946904Y-90987619D01*
X146899285Y-91082857D01*
X146899285Y-91320952D01*
X146946904Y-91416190D01*
X146994523Y-91463809D01*
X147089761Y-91511428D01*
X147280238Y-91511428D01*
X147375476Y-91463809D01*
X147423095Y-91416190D01*
X147470714Y-91320952D01*
X150979142Y-101607857D02*
X151026761Y-101655476D01*
X151074380Y-101798333D01*
X151074380Y-101893571D01*
X151026761Y-102036428D01*
X150931523Y-102131666D01*
X150836285Y-102179285D01*
X150645809Y-102226904D01*
X150502952Y-102226904D01*
X150312476Y-102179285D01*
X150217238Y-102131666D01*
X150122000Y-102036428D01*
X150074380Y-101893571D01*
X150074380Y-101798333D01*
X150122000Y-101655476D01*
X150169619Y-101607857D01*
X151074380Y-100655476D02*
X151074380Y-101226904D01*
X151074380Y-100941190D02*
X150074380Y-100941190D01*
X150217238Y-101036428D01*
X150312476Y-101131666D01*
X150360095Y-101226904D01*
X150074380Y-100036428D02*
X150074380Y-99941190D01*
X150122000Y-99845952D01*
X150169619Y-99798333D01*
X150264857Y-99750714D01*
X150455333Y-99703095D01*
X150693428Y-99703095D01*
X150883904Y-99750714D01*
X150979142Y-99798333D01*
X151026761Y-99845952D01*
X151074380Y-99941190D01*
X151074380Y-100036428D01*
X151026761Y-100131666D01*
X150979142Y-100179285D01*
X150883904Y-100226904D01*
X150693428Y-100274523D01*
X150455333Y-100274523D01*
X150264857Y-100226904D01*
X150169619Y-100179285D01*
X150122000Y-100131666D01*
X150074380Y-100036428D01*
X178427142Y-80367142D02*
X178379523Y-80414761D01*
X178236666Y-80462380D01*
X178141428Y-80462380D01*
X177998571Y-80414761D01*
X177903333Y-80319523D01*
X177855714Y-80224285D01*
X177808095Y-80033809D01*
X177808095Y-79890952D01*
X177855714Y-79700476D01*
X177903333Y-79605238D01*
X177998571Y-79510000D01*
X178141428Y-79462380D01*
X178236666Y-79462380D01*
X178379523Y-79510000D01*
X178427142Y-79557619D01*
X179379523Y-80462380D02*
X178808095Y-80462380D01*
X179093809Y-80462380D02*
X179093809Y-79462380D01*
X178998571Y-79605238D01*
X178903333Y-79700476D01*
X178808095Y-79748095D01*
X180331904Y-80462380D02*
X179760476Y-80462380D01*
X180046190Y-80462380D02*
X180046190Y-79462380D01*
X179950952Y-79605238D01*
X179855714Y-79700476D01*
X179760476Y-79748095D01*
X145137142Y-102877857D02*
X145184761Y-102925476D01*
X145232380Y-103068333D01*
X145232380Y-103163571D01*
X145184761Y-103306428D01*
X145089523Y-103401666D01*
X144994285Y-103449285D01*
X144803809Y-103496904D01*
X144660952Y-103496904D01*
X144470476Y-103449285D01*
X144375238Y-103401666D01*
X144280000Y-103306428D01*
X144232380Y-103163571D01*
X144232380Y-103068333D01*
X144280000Y-102925476D01*
X144327619Y-102877857D01*
X145232380Y-101925476D02*
X145232380Y-102496904D01*
X145232380Y-102211190D02*
X144232380Y-102211190D01*
X144375238Y-102306428D01*
X144470476Y-102401666D01*
X144518095Y-102496904D01*
X144327619Y-101544523D02*
X144280000Y-101496904D01*
X144232380Y-101401666D01*
X144232380Y-101163571D01*
X144280000Y-101068333D01*
X144327619Y-101020714D01*
X144422857Y-100973095D01*
X144518095Y-100973095D01*
X144660952Y-101020714D01*
X145232380Y-101592142D01*
X145232380Y-100973095D01*
X140962142Y-101322142D02*
X140914523Y-101369761D01*
X140771666Y-101417380D01*
X140676428Y-101417380D01*
X140533571Y-101369761D01*
X140438333Y-101274523D01*
X140390714Y-101179285D01*
X140343095Y-100988809D01*
X140343095Y-100845952D01*
X140390714Y-100655476D01*
X140438333Y-100560238D01*
X140533571Y-100465000D01*
X140676428Y-100417380D01*
X140771666Y-100417380D01*
X140914523Y-100465000D01*
X140962142Y-100512619D01*
X141914523Y-101417380D02*
X141343095Y-101417380D01*
X141628809Y-101417380D02*
X141628809Y-100417380D01*
X141533571Y-100560238D01*
X141438333Y-100655476D01*
X141343095Y-100703095D01*
X142247857Y-100417380D02*
X142866904Y-100417380D01*
X142533571Y-100798333D01*
X142676428Y-100798333D01*
X142771666Y-100845952D01*
X142819285Y-100893571D01*
X142866904Y-100988809D01*
X142866904Y-101226904D01*
X142819285Y-101322142D01*
X142771666Y-101369761D01*
X142676428Y-101417380D01*
X142390714Y-101417380D01*
X142295476Y-101369761D01*
X142247857Y-101322142D01*
X186380380Y-83542095D02*
X185380380Y-83542095D01*
X185380380Y-83304000D01*
X185428000Y-83161142D01*
X185523238Y-83065904D01*
X185618476Y-83018285D01*
X185808952Y-82970666D01*
X185951809Y-82970666D01*
X186142285Y-83018285D01*
X186237523Y-83065904D01*
X186332761Y-83161142D01*
X186380380Y-83304000D01*
X186380380Y-83542095D01*
X186380380Y-82018285D02*
X186380380Y-82589714D01*
X186380380Y-82304000D02*
X185380380Y-82304000D01*
X185523238Y-82399238D01*
X185618476Y-82494476D01*
X185666095Y-82589714D01*
X184707380Y-87256904D02*
X183707380Y-87256904D01*
X184707380Y-86685476D02*
X184135952Y-87114047D01*
X183707380Y-86685476D02*
X184278809Y-87256904D01*
X192111380Y-95583333D02*
X192825666Y-95583333D01*
X192968523Y-95630952D01*
X193063761Y-95726190D01*
X193111380Y-95869047D01*
X193111380Y-95964285D01*
X193111380Y-94583333D02*
X193111380Y-95154761D01*
X193111380Y-94869047D02*
X192111380Y-94869047D01*
X192254238Y-94964285D01*
X192349476Y-95059523D01*
X192397095Y-95154761D01*
X194611666Y-85812380D02*
X194611666Y-86526666D01*
X194564047Y-86669523D01*
X194468809Y-86764761D01*
X194325952Y-86812380D01*
X194230714Y-86812380D01*
X195040238Y-85907619D02*
X195087857Y-85860000D01*
X195183095Y-85812380D01*
X195421190Y-85812380D01*
X195516428Y-85860000D01*
X195564047Y-85907619D01*
X195611666Y-86002857D01*
X195611666Y-86098095D01*
X195564047Y-86240952D01*
X194992619Y-86812380D01*
X195611666Y-86812380D01*
X137882380Y-101258333D02*
X138596666Y-101258333D01*
X138739523Y-101305952D01*
X138834761Y-101401190D01*
X138882380Y-101544047D01*
X138882380Y-101639285D01*
X137882380Y-100877380D02*
X137882380Y-100258333D01*
X138263333Y-100591666D01*
X138263333Y-100448809D01*
X138310952Y-100353571D01*
X138358571Y-100305952D01*
X138453809Y-100258333D01*
X138691904Y-100258333D01*
X138787142Y-100305952D01*
X138834761Y-100353571D01*
X138882380Y-100448809D01*
X138882380Y-100734523D01*
X138834761Y-100829761D01*
X138787142Y-100877380D01*
X180077619Y-92170238D02*
X180030000Y-92265476D01*
X179934761Y-92360714D01*
X179791904Y-92503571D01*
X179744285Y-92598809D01*
X179744285Y-92694047D01*
X179982380Y-92646428D02*
X179934761Y-92741666D01*
X179839523Y-92836904D01*
X179649047Y-92884523D01*
X179315714Y-92884523D01*
X179125238Y-92836904D01*
X179030000Y-92741666D01*
X178982380Y-92646428D01*
X178982380Y-92455952D01*
X179030000Y-92360714D01*
X179125238Y-92265476D01*
X179315714Y-92217857D01*
X179649047Y-92217857D01*
X179839523Y-92265476D01*
X179934761Y-92360714D01*
X179982380Y-92455952D01*
X179982380Y-92646428D01*
X179982380Y-91265476D02*
X179982380Y-91836904D01*
X179982380Y-91551190D02*
X178982380Y-91551190D01*
X179125238Y-91646428D01*
X179220476Y-91741666D01*
X179268095Y-91836904D01*
X180379619Y-98393238D02*
X180332000Y-98488476D01*
X180236761Y-98583714D01*
X180093904Y-98726571D01*
X180046285Y-98821809D01*
X180046285Y-98917047D01*
X180284380Y-98869428D02*
X180236761Y-98964666D01*
X180141523Y-99059904D01*
X179951047Y-99107523D01*
X179617714Y-99107523D01*
X179427238Y-99059904D01*
X179332000Y-98964666D01*
X179284380Y-98869428D01*
X179284380Y-98678952D01*
X179332000Y-98583714D01*
X179427238Y-98488476D01*
X179617714Y-98440857D01*
X179951047Y-98440857D01*
X180141523Y-98488476D01*
X180236761Y-98583714D01*
X180284380Y-98678952D01*
X180284380Y-98869428D01*
X179379619Y-98059904D02*
X179332000Y-98012285D01*
X179284380Y-97917047D01*
X179284380Y-97678952D01*
X179332000Y-97583714D01*
X179379619Y-97536095D01*
X179474857Y-97488476D01*
X179570095Y-97488476D01*
X179712952Y-97536095D01*
X180284380Y-98107523D01*
X180284380Y-97488476D01*
X159289761Y-94702619D02*
X159194523Y-94655000D01*
X159099285Y-94559761D01*
X158956428Y-94416904D01*
X158861190Y-94369285D01*
X158765952Y-94369285D01*
X158813571Y-94607380D02*
X158718333Y-94559761D01*
X158623095Y-94464523D01*
X158575476Y-94274047D01*
X158575476Y-93940714D01*
X158623095Y-93750238D01*
X158718333Y-93655000D01*
X158813571Y-93607380D01*
X159004047Y-93607380D01*
X159099285Y-93655000D01*
X159194523Y-93750238D01*
X159242142Y-93940714D01*
X159242142Y-94274047D01*
X159194523Y-94464523D01*
X159099285Y-94559761D01*
X159004047Y-94607380D01*
X158813571Y-94607380D01*
X159575476Y-93607380D02*
X160194523Y-93607380D01*
X159861190Y-93988333D01*
X160004047Y-93988333D01*
X160099285Y-94035952D01*
X160146904Y-94083571D01*
X160194523Y-94178809D01*
X160194523Y-94416904D01*
X160146904Y-94512142D01*
X160099285Y-94559761D01*
X160004047Y-94607380D01*
X159718333Y-94607380D01*
X159623095Y-94559761D01*
X159575476Y-94512142D01*
X156876761Y-96813619D02*
X156781523Y-96766000D01*
X156686285Y-96670761D01*
X156543428Y-96527904D01*
X156448190Y-96480285D01*
X156352952Y-96480285D01*
X156400571Y-96718380D02*
X156305333Y-96670761D01*
X156210095Y-96575523D01*
X156162476Y-96385047D01*
X156162476Y-96051714D01*
X156210095Y-95861238D01*
X156305333Y-95766000D01*
X156400571Y-95718380D01*
X156591047Y-95718380D01*
X156686285Y-95766000D01*
X156781523Y-95861238D01*
X156829142Y-96051714D01*
X156829142Y-96385047D01*
X156781523Y-96575523D01*
X156686285Y-96670761D01*
X156591047Y-96718380D01*
X156400571Y-96718380D01*
X157686285Y-96051714D02*
X157686285Y-96718380D01*
X157448190Y-95670761D02*
X157210095Y-96385047D01*
X157829142Y-96385047D01*
X161758333Y-108402380D02*
X161425000Y-107926190D01*
X161186904Y-108402380D02*
X161186904Y-107402380D01*
X161567857Y-107402380D01*
X161663095Y-107450000D01*
X161710714Y-107497619D01*
X161758333Y-107592857D01*
X161758333Y-107735714D01*
X161710714Y-107830952D01*
X161663095Y-107878571D01*
X161567857Y-107926190D01*
X161186904Y-107926190D01*
X162710714Y-108402380D02*
X162139285Y-108402380D01*
X162425000Y-108402380D02*
X162425000Y-107402380D01*
X162329761Y-107545238D01*
X162234523Y-107640476D01*
X162139285Y-107688095D01*
X174458333Y-105227380D02*
X174125000Y-104751190D01*
X173886904Y-105227380D02*
X173886904Y-104227380D01*
X174267857Y-104227380D01*
X174363095Y-104275000D01*
X174410714Y-104322619D01*
X174458333Y-104417857D01*
X174458333Y-104560714D01*
X174410714Y-104655952D01*
X174363095Y-104703571D01*
X174267857Y-104751190D01*
X173886904Y-104751190D01*
X174839285Y-104322619D02*
X174886904Y-104275000D01*
X174982142Y-104227380D01*
X175220238Y-104227380D01*
X175315476Y-104275000D01*
X175363095Y-104322619D01*
X175410714Y-104417857D01*
X175410714Y-104513095D01*
X175363095Y-104655952D01*
X174791666Y-105227380D01*
X175410714Y-105227380D01*
X182078333Y-88717380D02*
X181745000Y-88241190D01*
X181506904Y-88717380D02*
X181506904Y-87717380D01*
X181887857Y-87717380D01*
X181983095Y-87765000D01*
X182030714Y-87812619D01*
X182078333Y-87907857D01*
X182078333Y-88050714D01*
X182030714Y-88145952D01*
X181983095Y-88193571D01*
X181887857Y-88241190D01*
X181506904Y-88241190D01*
X182411666Y-87717380D02*
X183030714Y-87717380D01*
X182697380Y-88098333D01*
X182840238Y-88098333D01*
X182935476Y-88145952D01*
X182983095Y-88193571D01*
X183030714Y-88288809D01*
X183030714Y-88526904D01*
X182983095Y-88622142D01*
X182935476Y-88669761D01*
X182840238Y-88717380D01*
X182554523Y-88717380D01*
X182459285Y-88669761D01*
X182411666Y-88622142D01*
X184602380Y-80176666D02*
X184126190Y-80510000D01*
X184602380Y-80748095D02*
X183602380Y-80748095D01*
X183602380Y-80367142D01*
X183650000Y-80271904D01*
X183697619Y-80224285D01*
X183792857Y-80176666D01*
X183935714Y-80176666D01*
X184030952Y-80224285D01*
X184078571Y-80271904D01*
X184126190Y-80367142D01*
X184126190Y-80748095D01*
X183935714Y-79319523D02*
X184602380Y-79319523D01*
X183554761Y-79557619D02*
X184269047Y-79795714D01*
X184269047Y-79176666D01*
X176998333Y-105227380D02*
X176665000Y-104751190D01*
X176426904Y-105227380D02*
X176426904Y-104227380D01*
X176807857Y-104227380D01*
X176903095Y-104275000D01*
X176950714Y-104322619D01*
X176998333Y-104417857D01*
X176998333Y-104560714D01*
X176950714Y-104655952D01*
X176903095Y-104703571D01*
X176807857Y-104751190D01*
X176426904Y-104751190D01*
X177903095Y-104227380D02*
X177426904Y-104227380D01*
X177379285Y-104703571D01*
X177426904Y-104655952D01*
X177522142Y-104608333D01*
X177760238Y-104608333D01*
X177855476Y-104655952D01*
X177903095Y-104703571D01*
X177950714Y-104798809D01*
X177950714Y-105036904D01*
X177903095Y-105132142D01*
X177855476Y-105179761D01*
X177760238Y-105227380D01*
X177522142Y-105227380D01*
X177426904Y-105179761D01*
X177379285Y-105132142D01*
X189427380Y-100164166D02*
X188951190Y-100497500D01*
X189427380Y-100735595D02*
X188427380Y-100735595D01*
X188427380Y-100354642D01*
X188475000Y-100259404D01*
X188522619Y-100211785D01*
X188617857Y-100164166D01*
X188760714Y-100164166D01*
X188855952Y-100211785D01*
X188903571Y-100259404D01*
X188951190Y-100354642D01*
X188951190Y-100735595D01*
X188427380Y-99307023D02*
X188427380Y-99497500D01*
X188475000Y-99592738D01*
X188522619Y-99640357D01*
X188665476Y-99735595D01*
X188855952Y-99783214D01*
X189236904Y-99783214D01*
X189332142Y-99735595D01*
X189379761Y-99687976D01*
X189427380Y-99592738D01*
X189427380Y-99402261D01*
X189379761Y-99307023D01*
X189332142Y-99259404D01*
X189236904Y-99211785D01*
X188998809Y-99211785D01*
X188903571Y-99259404D01*
X188855952Y-99307023D01*
X188808333Y-99402261D01*
X188808333Y-99592738D01*
X188855952Y-99687976D01*
X188903571Y-99735595D01*
X188998809Y-99783214D01*
X176030833Y-87702380D02*
X175697500Y-87226190D01*
X175459404Y-87702380D02*
X175459404Y-86702380D01*
X175840357Y-86702380D01*
X175935595Y-86750000D01*
X175983214Y-86797619D01*
X176030833Y-86892857D01*
X176030833Y-87035714D01*
X175983214Y-87130952D01*
X175935595Y-87178571D01*
X175840357Y-87226190D01*
X175459404Y-87226190D01*
X176364166Y-86702380D02*
X177030833Y-86702380D01*
X176602261Y-87702380D01*
X151979333Y-90114380D02*
X151646000Y-89638190D01*
X151407904Y-90114380D02*
X151407904Y-89114380D01*
X151788857Y-89114380D01*
X151884095Y-89162000D01*
X151931714Y-89209619D01*
X151979333Y-89304857D01*
X151979333Y-89447714D01*
X151931714Y-89542952D01*
X151884095Y-89590571D01*
X151788857Y-89638190D01*
X151407904Y-89638190D01*
X152550761Y-89542952D02*
X152455523Y-89495333D01*
X152407904Y-89447714D01*
X152360285Y-89352476D01*
X152360285Y-89304857D01*
X152407904Y-89209619D01*
X152455523Y-89162000D01*
X152550761Y-89114380D01*
X152741238Y-89114380D01*
X152836476Y-89162000D01*
X152884095Y-89209619D01*
X152931714Y-89304857D01*
X152931714Y-89352476D01*
X152884095Y-89447714D01*
X152836476Y-89495333D01*
X152741238Y-89542952D01*
X152550761Y-89542952D01*
X152455523Y-89590571D01*
X152407904Y-89638190D01*
X152360285Y-89733428D01*
X152360285Y-89923904D01*
X152407904Y-90019142D01*
X152455523Y-90066761D01*
X152550761Y-90114380D01*
X152741238Y-90114380D01*
X152836476Y-90066761D01*
X152884095Y-90019142D01*
X152931714Y-89923904D01*
X152931714Y-89733428D01*
X152884095Y-89638190D01*
X152836476Y-89590571D01*
X152741238Y-89542952D01*
X156043333Y-93924380D02*
X155710000Y-93448190D01*
X155471904Y-93924380D02*
X155471904Y-92924380D01*
X155852857Y-92924380D01*
X155948095Y-92972000D01*
X155995714Y-93019619D01*
X156043333Y-93114857D01*
X156043333Y-93257714D01*
X155995714Y-93352952D01*
X155948095Y-93400571D01*
X155852857Y-93448190D01*
X155471904Y-93448190D01*
X156519523Y-93924380D02*
X156710000Y-93924380D01*
X156805238Y-93876761D01*
X156852857Y-93829142D01*
X156948095Y-93686285D01*
X156995714Y-93495809D01*
X156995714Y-93114857D01*
X156948095Y-93019619D01*
X156900476Y-92972000D01*
X156805238Y-92924380D01*
X156614761Y-92924380D01*
X156519523Y-92972000D01*
X156471904Y-93019619D01*
X156424285Y-93114857D01*
X156424285Y-93352952D01*
X156471904Y-93448190D01*
X156519523Y-93495809D01*
X156614761Y-93543428D01*
X156805238Y-93543428D01*
X156900476Y-93495809D01*
X156948095Y-93448190D01*
X156995714Y-93352952D01*
X158567380Y-104147857D02*
X158091190Y-104481190D01*
X158567380Y-104719285D02*
X157567380Y-104719285D01*
X157567380Y-104338333D01*
X157615000Y-104243095D01*
X157662619Y-104195476D01*
X157757857Y-104147857D01*
X157900714Y-104147857D01*
X157995952Y-104195476D01*
X158043571Y-104243095D01*
X158091190Y-104338333D01*
X158091190Y-104719285D01*
X158567380Y-103195476D02*
X158567380Y-103766904D01*
X158567380Y-103481190D02*
X157567380Y-103481190D01*
X157710238Y-103576428D01*
X157805476Y-103671666D01*
X157853095Y-103766904D01*
X157567380Y-102576428D02*
X157567380Y-102481190D01*
X157615000Y-102385952D01*
X157662619Y-102338333D01*
X157757857Y-102290714D01*
X157948333Y-102243095D01*
X158186428Y-102243095D01*
X158376904Y-102290714D01*
X158472142Y-102338333D01*
X158519761Y-102385952D01*
X158567380Y-102481190D01*
X158567380Y-102576428D01*
X158519761Y-102671666D01*
X158472142Y-102719285D01*
X158376904Y-102766904D01*
X158186428Y-102814523D01*
X157948333Y-102814523D01*
X157757857Y-102766904D01*
X157662619Y-102719285D01*
X157615000Y-102671666D01*
X157567380Y-102576428D01*
X154932142Y-108402380D02*
X154598809Y-107926190D01*
X154360714Y-108402380D02*
X154360714Y-107402380D01*
X154741666Y-107402380D01*
X154836904Y-107450000D01*
X154884523Y-107497619D01*
X154932142Y-107592857D01*
X154932142Y-107735714D01*
X154884523Y-107830952D01*
X154836904Y-107878571D01*
X154741666Y-107926190D01*
X154360714Y-107926190D01*
X155884523Y-108402380D02*
X155313095Y-108402380D01*
X155598809Y-108402380D02*
X155598809Y-107402380D01*
X155503571Y-107545238D01*
X155408333Y-107640476D01*
X155313095Y-107688095D01*
X156836904Y-108402380D02*
X156265476Y-108402380D01*
X156551190Y-108402380D02*
X156551190Y-107402380D01*
X156455952Y-107545238D01*
X156360714Y-107640476D01*
X156265476Y-107688095D01*
X140962142Y-107386380D02*
X140628809Y-106910190D01*
X140390714Y-107386380D02*
X140390714Y-106386380D01*
X140771666Y-106386380D01*
X140866904Y-106434000D01*
X140914523Y-106481619D01*
X140962142Y-106576857D01*
X140962142Y-106719714D01*
X140914523Y-106814952D01*
X140866904Y-106862571D01*
X140771666Y-106910190D01*
X140390714Y-106910190D01*
X141914523Y-107386380D02*
X141343095Y-107386380D01*
X141628809Y-107386380D02*
X141628809Y-106386380D01*
X141533571Y-106529238D01*
X141438333Y-106624476D01*
X141343095Y-106672095D01*
X142295476Y-106481619D02*
X142343095Y-106434000D01*
X142438333Y-106386380D01*
X142676428Y-106386380D01*
X142771666Y-106434000D01*
X142819285Y-106481619D01*
X142866904Y-106576857D01*
X142866904Y-106672095D01*
X142819285Y-106814952D01*
X142247857Y-107386380D01*
X142866904Y-107386380D01*
X145915142Y-89352380D02*
X145581809Y-88876190D01*
X145343714Y-89352380D02*
X145343714Y-88352380D01*
X145724666Y-88352380D01*
X145819904Y-88400000D01*
X145867523Y-88447619D01*
X145915142Y-88542857D01*
X145915142Y-88685714D01*
X145867523Y-88780952D01*
X145819904Y-88828571D01*
X145724666Y-88876190D01*
X145343714Y-88876190D01*
X146867523Y-89352380D02*
X146296095Y-89352380D01*
X146581809Y-89352380D02*
X146581809Y-88352380D01*
X146486571Y-88495238D01*
X146391333Y-88590476D01*
X146296095Y-88638095D01*
X147200857Y-88352380D02*
X147819904Y-88352380D01*
X147486571Y-88733333D01*
X147629428Y-88733333D01*
X147724666Y-88780952D01*
X147772285Y-88828571D01*
X147819904Y-88923809D01*
X147819904Y-89161904D01*
X147772285Y-89257142D01*
X147724666Y-89304761D01*
X147629428Y-89352380D01*
X147343714Y-89352380D01*
X147248476Y-89304761D01*
X147200857Y-89257142D01*
X166489761Y-86812380D02*
X166156428Y-86336190D01*
X165918333Y-86812380D02*
X165918333Y-85812380D01*
X166299285Y-85812380D01*
X166394523Y-85860000D01*
X166442142Y-85907619D01*
X166489761Y-86002857D01*
X166489761Y-86145714D01*
X166442142Y-86240952D01*
X166394523Y-86288571D01*
X166299285Y-86336190D01*
X165918333Y-86336190D01*
X166775476Y-85812380D02*
X167108809Y-86812380D01*
X167442142Y-85812380D01*
X168299285Y-86812380D02*
X167727857Y-86812380D01*
X168013571Y-86812380D02*
X168013571Y-85812380D01*
X167918333Y-85955238D01*
X167823095Y-86050476D01*
X167727857Y-86098095D01*
X148709761Y-86812380D02*
X148376428Y-86336190D01*
X148138333Y-86812380D02*
X148138333Y-85812380D01*
X148519285Y-85812380D01*
X148614523Y-85860000D01*
X148662142Y-85907619D01*
X148709761Y-86002857D01*
X148709761Y-86145714D01*
X148662142Y-86240952D01*
X148614523Y-86288571D01*
X148519285Y-86336190D01*
X148138333Y-86336190D01*
X148995476Y-85812380D02*
X149328809Y-86812380D01*
X149662142Y-85812380D01*
X149947857Y-85907619D02*
X149995476Y-85860000D01*
X150090714Y-85812380D01*
X150328809Y-85812380D01*
X150424047Y-85860000D01*
X150471666Y-85907619D01*
X150519285Y-86002857D01*
X150519285Y-86098095D01*
X150471666Y-86240952D01*
X149900238Y-86812380D01*
X150519285Y-86812380D01*
X138882380Y-86240238D02*
X138406190Y-86573571D01*
X138882380Y-86811666D02*
X137882380Y-86811666D01*
X137882380Y-86430714D01*
X137930000Y-86335476D01*
X137977619Y-86287857D01*
X138072857Y-86240238D01*
X138215714Y-86240238D01*
X138310952Y-86287857D01*
X138358571Y-86335476D01*
X138406190Y-86430714D01*
X138406190Y-86811666D01*
X137882380Y-85954523D02*
X138882380Y-85621190D01*
X137882380Y-85287857D01*
X137882380Y-85049761D02*
X137882380Y-84430714D01*
X138263333Y-84764047D01*
X138263333Y-84621190D01*
X138310952Y-84525952D01*
X138358571Y-84478333D01*
X138453809Y-84430714D01*
X138691904Y-84430714D01*
X138787142Y-84478333D01*
X138834761Y-84525952D01*
X138882380Y-84621190D01*
X138882380Y-84906904D01*
X138834761Y-85002142D01*
X138787142Y-85049761D01*
M02*
